<svg xmlns="http://www.w3.org/2000/svg" xmlns:xlink="http://www.w3.org/1999/xlink" version="1.1" x="0px" y="0px" viewBox="0 0 64 80" style="" xml:space="preserve"><path d="M61,52h-5.55634C55.78815,51.4093,56,50.73187,56,50c0-2.20605-1.79443-4-4-4h-0.29541C50.76465,46,50,45.23535,50,44.2959  c0-0.50195,0.22168-0.97754,0.60791-1.30469C53.73242,40.33984,61,33.08594,61,23C61,10.04688,49.8877,2,32,2S3,10.04688,3,23  c0,10.08594,7.26758,17.33984,10.39209,19.99121C13.77832,43.31836,14,43.79395,14,44.2959C14,45.23535,13.23535,46,12.29541,46H12  c-2.20557,0-4,1.79395-4,4c0,0.73187,0.21185,1.4093,0.55634,2H3c-0.55225,0-1,0.44727-1,1v8c0,0.55273,0.44775,1,1,1h58  c0.55225,0,1-0.44727,1-1v-8C62,52.44727,61.55225,52,61,52z M10,50c0-1.10254,0.89697-2,2-2h0.29541  C14.33789,48,16,46.33789,16,44.2959c0-1.08984-0.479-2.12109-1.31396-2.83008C12.41357,39.53809,5,32.50977,5,23  C5,11.10254,15.09326,4,32,4s27,7.10254,27,19c0,9.50977-7.41357,16.53809-9.68604,18.46582C48.479,42.1748,48,43.20605,48,44.2959  C48,46.33789,49.66211,48,51.70459,48H52c1.10303,0,2,0.89746,2,2s-0.89697,2-2,2h-2h-0.19189C48.26709,48.05664,37.80908,46,32,46  s-16.26709,2.05664-17.80811,6H14h-2C10.89697,52,10,51.10254,10,50z M47.42651,52H16.57349C18.5484,50.10168,25.46112,48,32,48  S45.4516,50.10168,47.42651,52z M60,60H4v-6h8h2h1h34h1h2h8V60z" fill="#ffffff"/><path d="M17.86816,36C18.39844,35.07324,19,34.02148,19,32.00684s-0.60107-3.06738-1.13184-3.99512  C17.40234,27.19629,17,26.49219,17,25.00781c0-1.48535,0.40234-2.19043,0.86816-3.00586C18.39893,21.07324,19,20.02051,19,18.00391  s-0.60107-3.06934-1.13184-3.99805C17.40234,13.19043,17,12.48535,17,11h-2c0,2.0166,0.60107,3.06934,1.13184,3.99805  C16.59766,15.81348,17,16.51855,17,18.00391s-0.40234,2.19043-0.86816,3.00586C15.60107,21.93848,15,22.99121,15,25.00781  c0,2.01562,0.60156,3.06836,1.13184,3.99609C16.59766,29.81934,17,30.52344,17,32.00684c0,1.48242-0.40234,2.18652-0.86816,3.00098  C15.60156,35.93457,15,36.98633,15,39h2C17,37.51758,17.40234,36.81445,17.86816,36z" fill="#ffffff"/><path d="M25,39h2c0-1.48242,0.40234-2.18555,0.86816-3C28.39844,35.07324,29,34.02148,29,32.00684s-0.60107-3.06738-1.13184-3.99512  C27.40234,27.19629,27,26.49219,27,25.00781c0-1.48535,0.40234-2.19043,0.86816-3.00586C28.39893,21.07324,29,20.02051,29,18.00391  s-0.60107-3.06934-1.13184-3.99805C27.40234,13.19043,27,12.48535,27,11h-2c0,2.0166,0.60107,3.06934,1.13184,3.99805  C26.59766,15.81348,27,16.51855,27,18.00391s-0.40234,2.19043-0.86816,3.00586C25.60107,21.93848,25,22.99121,25,25.00781  c0,2.01562,0.60156,3.06836,1.13184,3.99609C26.59766,29.81934,27,30.52344,27,32.00684c0,1.48242-0.40234,2.18652-0.86816,3.00098  C25.60156,35.93457,25,36.98633,25,39z" fill="#ffffff"/><path d="M35,39h2c0-1.48242,0.40234-2.18555,0.86816-3C38.39844,35.07324,39,34.02148,39,32.00684s-0.60107-3.06738-1.13184-3.99512  C37.40234,27.19629,37,26.49219,37,25.00781c0-1.48535,0.40234-2.19043,0.86816-3.00586C38.39893,21.07324,39,20.02051,39,18.00391  s-0.60107-3.06934-1.13184-3.99805C37.40234,13.19043,37,12.48535,37,11h-2c0,2.0166,0.60107,3.06934,1.13184,3.99805  C36.59766,15.81348,37,16.51855,37,18.00391s-0.40234,2.19043-0.86816,3.00586C35.60107,21.93848,35,22.99121,35,25.00781  c0,2.01562,0.60156,3.06836,1.13184,3.99609C36.59766,29.81934,37,30.52344,37,32.00684c0,1.48242-0.40234,2.18652-0.86816,3.00098  C35.60156,35.93457,35,36.98633,35,39z" fill="#ffffff"/><path d="M45,39h2c0-1.48242,0.40234-2.18555,0.86816-3C48.39844,35.07324,49,34.02148,49,32.00684s-0.60107-3.06738-1.13184-3.99512  C47.40234,27.19629,47,26.49219,47,25.00781c0-1.48535,0.40234-2.19043,0.86816-3.00586C48.39893,21.07324,49,20.02051,49,18.00391  s-0.60107-3.06934-1.13184-3.99805C47.40234,13.19043,47,12.48535,47,11h-2c0,2.0166,0.60107,3.06934,1.13184,3.99805  C46.59766,15.81348,47,16.51855,47,18.00391s-0.40234,2.19043-0.86816,3.00586C45.60107,21.93848,45,22.99121,45,25.00781  c0,2.01562,0.60156,3.06836,1.13184,3.99609C46.59766,29.81934,47,30.52344,47,32.00684c0,1.48242-0.40234,2.18652-0.86816,3.00098  C45.60156,35.93457,45,36.98633,45,39z" fill="#ffffff"/></svg>