<svg xmlns="http://www.w3.org/2000/svg" xmlns:xlink="http://www.w3.org/1999/xlink" version="1.1" x="0px" y="0px" viewBox="0 0 64 80" style="" xml:space="preserve"><path d="M48,35.051L48,33h-2v2.051C46.331,35.023,46.662,35,47,35C47.338,35,47.67,35.023,48,35.051z"/><path d="M46,39h2.001l0-1.949C47.672,37.018,47.338,37,47,37c-0.338,0-0.671,0.018-1,0.051V39z"/><path d="M37,47v10h20V47c0-4.469-2.947-8.262-7-9.539V39c0,1.103-0.897,2-2,2h-2c-1.103,0-2-0.897-2-2v-1.539  C39.947,38.738,37,42.531,37,47z"/><path d="M36,59h-1.5c-0.276,0-0.5,0.224-0.5,0.5s0.224,0.5,0.5,0.5h25c0.276,0,0.5-0.224,0.5-0.5S59.776,59,59.5,59H58H36z"/><path d="M12.193,59.253C12.079,60.163,12,61.079,12,62h22.5c-1.465,0-2.639-1.266-2.487-2.761C32.146,57.938,33.34,57,34.648,57H35  V47c0-5.579,3.833-10.268,9-11.605V32c0-0.552,0.448-1,1-1h1v-1c0-0.552,0.448-1,1-1s1,0.448,1,1v1h1c0.552,0,1,0.448,1,1v3.395  c3.593,0.93,6.538,3.483,8,6.827V37V20.789c0-4.018-2.664-7.55-6.528-8.654l-6.777-2.247C41.295,8.761,39,5.582,39,2H22  c0,3.582-2.295,6.761-5.695,7.888l-6.777,2.247C5.664,13.239,3,16.77,3,20.789c0,3.726,0,16.948,0,19.832  c0,3.034-0.621,6.638,0.589,9.478C4.936,53.26,9.374,56.706,12.193,59.253z M21.591,57.798c-0.8-0.234-1.535-0.671-2.127-1.264  l1.415-1.413c0.355,0.355,0.796,0.617,1.274,0.758L21.591,57.798z M21.379,50.476l-1.083-1.682c0.702-0.452,1.514-0.722,2.348-0.781  l0.142,1.995C22.286,50.043,21.799,50.205,21.379,50.476z M21.591,27.798c-0.8-0.234-1.535-0.671-2.127-1.264l1.415-1.413  c0.355,0.355,0.796,0.617,1.274,0.758L21.591,27.798z M23.644,33.013l0.142,1.995c-0.5,0.035-0.987,0.197-1.407,0.468l-1.083-1.682  C21.998,33.342,22.81,33.072,23.644,33.013z M19.611,35.603l1.755,0.96C21.126,37,21,37.497,21,38c0,0.288,0.04,0.572,0.12,0.845  l-1.92,0.562C19.067,38.95,19,38.476,19,37.999C19,37.163,19.211,36.333,19.611,35.603z M22.591,42.798  c-0.8-0.234-1.535-0.671-2.127-1.264l1.415-1.413c0.355,0.355,0.796,0.617,1.274,0.758L22.591,42.798z M24.062,57.887l-0.424-1.954  c0.488-0.106,0.946-0.336,1.326-0.665l1.31,1.512C25.641,57.328,24.876,57.711,24.062,57.887z M25.079,48.452  c0.758,0.346,1.423,0.883,1.925,1.551l-1.601,1.2c-0.301-0.402-0.701-0.725-1.156-0.933L25.079,48.452z M24.638,40.933  c0.488-0.106,0.946-0.336,1.326-0.665l1.31,1.512c-0.632,0.548-1.397,0.931-2.212,1.107L24.638,40.933z M27.686,54.749l-1.874-0.699  C25.937,53.714,26,53.361,26,53c0-0.144-0.011-0.288-0.031-0.429l1.98-0.28c0.033,0.231,0.05,0.467,0.05,0.707  C28,53.601,27.894,54.189,27.686,54.749z M29,37.998c0,0.604-0.106,1.192-0.314,1.751l-1.874-0.699C26.937,38.714,27,38.361,27,38  c0-0.144-0.011-0.288-0.031-0.429l1.98-0.28C28.982,37.522,29,37.758,29,37.998z M26.403,36.203  c-0.301-0.402-0.701-0.725-1.156-0.933l0.832-1.818c0.758,0.346,1.423,0.883,1.925,1.551L26.403,36.203z M28,22.998  c0,0.604-0.106,1.192-0.314,1.751l-1.874-0.699C25.937,23.714,26,23.361,26,23c0-0.144-0.011-0.288-0.031-0.429l1.98-0.28  C27.982,22.522,28,22.758,28,22.998z M25.079,18.452c0.758,0.346,1.423,0.883,1.925,1.551l-1.601,1.2  c-0.301-0.402-0.701-0.725-1.156-0.933L25.079,18.452z M24.964,25.268l1.31,1.512c-0.632,0.548-1.397,0.931-2.212,1.107  l-0.424-1.954C24.125,25.827,24.584,25.597,24.964,25.268z M22.644,18.013l0.142,1.995c-0.5,0.035-0.987,0.197-1.407,0.468  l-1.083-1.682C20.998,18.342,21.81,18.072,22.644,18.013z M18.611,20.603l1.755,0.96C20.126,22,20,22.497,20,23  c0,0.288,0.04,0.572,0.12,0.845l-1.92,0.562C18.067,23.95,18,23.476,18,22.999C18,22.163,18.211,21.333,18.611,20.603z   M18.611,50.603l1.755,0.96C20.126,52,20,52.497,20,53c0,0.288,0.04,0.572,0.12,0.845l-1.92,0.562C18.067,53.95,18,53.476,18,52.999  C18,52.163,18.211,51.333,18.611,50.603z M13,26l4.324,13.836c0.438,1.402,0.396,2.911-0.12,4.286L15.375,49H15  c-1.281-1.281-2-3.017-2-4.828V26z"/></svg>